<svg width="63" height="63" viewBox="0 0 63 63" fill="none" xmlns="http://www.w3.org/2000/svg">
<path d="M10.4602 60.0273H45.5262C45.8414 60.0273 46.1438 59.9021 46.3667 59.6792C46.5896 59.4562 46.7149 59.1539 46.7149 58.8386V51.8254H52.5394C52.8547 51.8254 53.157 51.7002 53.3799 51.4773C53.6028 51.2543 53.7281 50.952 53.7281 50.6367V12.5158C53.7287 12.3382 53.6895 12.1628 53.6134 12.0023C53.5373 11.8419 53.4262 11.7005 53.2883 11.5886L42.9705 3.26787L42.7922 3.13712L42.6496 3.05391C42.5126 3.00242 42.368 2.9743 42.2217 2.9707H17.4734C17.1581 2.9707 16.8558 3.09594 16.6328 3.31886C16.4099 3.54178 16.2847 3.84413 16.2847 4.15938V11.1726H10.4602C10.1449 11.1726 9.84256 11.2978 9.61964 11.5207C9.39672 11.7437 9.27148 12.046 9.27148 12.3613V58.8386C9.27148 59.1539 9.39672 59.4562 9.61964 59.6792C9.84256 59.9021 10.1449 60.0273 10.4602 60.0273ZM36.3971 14.8575L42.8754 20.0996H36.3971V14.8575ZM43.4103 6.65561L49.3537 11.4103H43.4103V6.65561ZM18.662 5.34806H41.033V12.6466C41.033 12.9618 41.1582 13.2642 41.3811 13.4871C41.6041 13.71 41.9064 13.8352 42.2217 13.8352H51.3507V49.4956H46.7149V20.7177C46.7155 20.5401 46.6763 20.3646 46.6002 20.2042C46.5241 20.0437 46.413 19.9024 46.2751 19.7905L35.9573 11.4698C35.9046 11.4268 35.8441 11.3945 35.779 11.3747L35.6602 11.2558C35.5191 11.2043 35.3705 11.1762 35.2203 11.1726H18.662V5.34806ZM11.6488 13.5499H34.0198V21.2882C34.0198 21.6035 34.145 21.9059 34.3679 22.1288C34.5909 22.3517 34.8932 22.4769 35.2085 22.4769H44.3375V57.6499H11.6488V13.5499Z" fill="#686363"/>
<path d="M38.5135 26.4238H17.4738C17.1586 26.4238 16.8562 26.5491 16.6333 26.772C16.4104 26.9949 16.2852 27.2973 16.2852 27.6125C16.2852 27.9278 16.4104 28.2301 16.6333 28.453C16.8562 28.676 17.1586 28.8012 17.4738 28.8012H38.5135C38.8287 28.8012 39.1311 28.676 39.354 28.453C39.5769 28.2301 39.7021 27.9278 39.7021 27.6125C39.7021 27.2973 39.5769 26.9949 39.354 26.772C39.1311 26.5491 38.8287 26.4238 38.5135 26.4238ZM38.5135 32.177H17.4738C17.1586 32.177 16.8562 32.3023 16.6333 32.5252C16.4104 32.7481 16.2852 33.0505 16.2852 33.3657C16.2852 33.681 16.4104 33.9833 16.6333 34.2062C16.8562 34.4292 17.1586 34.5544 17.4738 34.5544H38.5135C38.8287 34.5544 39.1311 34.4292 39.354 34.2062C39.5769 33.9833 39.7021 33.681 39.7021 33.3657C39.7021 33.0505 39.5769 32.7481 39.354 32.5252C39.1311 32.3023 38.8287 32.177 38.5135 32.177ZM38.5135 37.9302H17.4738C17.1586 37.9302 16.8562 38.0555 16.6333 38.2784C16.4104 38.5013 16.2852 38.8037 16.2852 39.1189C16.2852 39.4342 16.4104 39.7365 16.6333 39.9594C16.8562 40.1824 17.1586 40.3076 17.4738 40.3076H38.5135C38.8287 40.3076 39.1311 40.1824 39.354 39.9594C39.5769 39.7365 39.7021 39.4342 39.7021 39.1189C39.7021 38.8037 39.5769 38.5013 39.354 38.2784C39.1311 38.0555 38.8287 37.9302 38.5135 37.9302ZM38.5135 43.6953H17.4738C17.1586 43.6953 16.8562 43.8206 16.6333 44.0435C16.4104 44.2664 16.2852 44.5688 16.2852 44.884C16.2852 45.1993 16.4104 45.5016 16.6333 45.7245C16.8562 45.9475 17.1586 46.0727 17.4738 46.0727H38.5135C38.8287 46.0727 39.1311 45.9475 39.354 45.7245C39.5769 45.5016 39.7021 45.1993 39.7021 44.884C39.7021 44.5688 39.5769 44.2664 39.354 44.0435C39.1311 43.8206 38.8287 43.6953 38.5135 43.6953ZM38.5135 49.4485H17.4738C17.1586 49.4485 16.8562 49.5738 16.6333 49.7967C16.4104 50.0196 16.2852 50.322 16.2852 50.6372C16.2852 50.9525 16.4104 51.2548 16.6333 51.4777C16.8562 51.7007 17.1586 51.8259 17.4738 51.8259H38.5135C38.8287 51.8259 39.1311 51.7007 39.354 51.4777C39.5769 51.2548 39.7021 50.9525 39.7021 50.6372C39.7021 50.322 39.5769 50.0196 39.354 49.7967C39.1311 49.5738 38.8287 49.4485 38.5135 49.4485Z" fill="#686363"/>
</svg>
