<svg width="66" height="65" viewBox="0 0 66 65" fill="none" xmlns="http://www.w3.org/2000/svg">
<path d="M33 0C14.7893 0 0 14.5652 0 32.5C0 50.4348 14.7893 65 33 65C51.2107 65 66 50.4348 66 32.5C66 14.5652 51.2107 0 33 0ZM33 2.4388C49.8379 2.4388 63.4418 15.9172 63.4418 32.5C63.446 36.4383 62.6614 40.3387 61.1331 43.9779C59.6047 47.6172 57.3625 50.9239 54.5349 53.7086C51.7073 56.4934 48.3498 58.7016 44.6545 60.2068C40.9593 61.712 36.9988 62.4847 33 62.4806C29.0011 62.4847 25.0407 61.712 21.3455 60.2068C17.6502 58.7016 14.2927 56.4934 11.4651 53.7086C8.63746 50.9239 6.39529 47.6172 4.86692 43.9779C3.33855 40.3387 2.55399 36.4383 2.55816 32.5C2.55816 15.9172 16.1621 2.4362 33 2.4362V2.4388ZM34.32 11.128L14.9318 30.303L16.7482 32.0918L18.48 30.3862V52H31.68V39H36.96V52H50.16V30.4694L52.2218 32.5H52.8V29.9H53.3782L34.32 11.128ZM34.32 14.8668L47.52 27.8668V49.4H39.6V36.4H29.04V49.4H21.12V27.7862L34.32 14.8668Z" fill="#686363"/>
</svg>
