<svg width="31" height="31" viewBox="0 0 31 31" fill="none" xmlns="http://www.w3.org/2000/svg">
<path d="M12.3124 9.13672H9.50811C9.35445 9.13672 9.20707 9.19776 9.09841 9.30642C8.98976 9.41508 8.92871 9.56245 8.92871 9.71612V12.5146C8.92871 12.6683 8.98976 12.8157 9.09841 12.9243C9.20707 13.033 9.35445 13.094 9.50811 13.094H12.3124C12.4661 13.094 12.6135 13.033 12.7221 12.9243C12.8308 12.8157 12.8918 12.6683 12.8918 12.5146V9.71612C12.8918 9.56245 12.8308 9.41508 12.7221 9.30642C12.6135 9.19776 12.4661 9.13672 12.3124 9.13672ZM11.733 11.9352H10.0875V10.2955H11.733V11.9352ZM12.3124 15.3421H9.50811C9.35445 15.3421 9.20707 15.4032 9.09841 15.5118C8.98976 15.6205 8.92871 15.7679 8.92871 15.9215V18.72C8.92871 18.8737 8.98976 19.0211 9.09841 19.1297C9.20707 19.2384 9.35445 19.2994 9.50811 19.2994H12.3124C12.4661 19.2994 12.6135 19.2384 12.7221 19.1297C12.8308 19.0211 12.8918 18.8737 12.8918 18.72V15.9215C12.8918 15.7679 12.8308 15.6205 12.7221 15.5118C12.6135 15.4032 12.4661 15.3421 12.3124 15.3421ZM11.733 18.1406H10.0875V16.5009H11.733V18.1406ZM12.3124 21.5475H9.50811C9.35445 21.5475 9.20707 21.6086 9.09841 21.7172C8.98976 21.8259 8.92871 21.9733 8.92871 22.1269V24.9138C8.92871 25.0675 8.98976 25.2149 9.09841 25.3235C9.20707 25.4322 9.35445 25.4933 9.50811 25.4933H12.3124C12.4661 25.4933 12.6135 25.4322 12.7221 25.3235C12.8308 25.2149 12.8918 25.0675 12.8918 24.9138V22.1269C12.8918 21.9733 12.8308 21.8259 12.7221 21.7172C12.6135 21.6086 12.4661 21.5475 12.3124 21.5475ZM11.733 24.346H10.0875V22.7063H11.733V24.346ZM14.5315 10.5331C14.3779 10.5331 14.2305 10.5941 14.1218 10.7028C14.0132 10.8114 13.9521 10.9588 13.9521 11.1125C13.9521 11.2661 14.0132 11.4135 14.1218 11.5222C14.2305 11.6308 14.3779 11.6919 14.5315 11.6919H21.2005C21.3541 11.6919 21.5015 11.6308 21.6102 11.5222C21.7188 11.4135 21.7799 11.2661 21.7799 11.1125C21.7799 10.9588 21.7188 10.8114 21.6102 10.7028C21.5015 10.5941 21.3541 10.5331 21.2005 10.5331H14.5315ZM21.2005 16.7385H14.5315C14.3779 16.7385 14.2305 16.7995 14.1218 16.9082C14.0132 17.0168 13.9521 17.1642 13.9521 17.3179C13.9521 17.4715 14.0132 17.6189 14.1218 17.7276C14.2305 17.8362 14.3779 17.8973 14.5315 17.8973H21.2005C21.3541 17.8973 21.5015 17.8362 21.6102 17.7276C21.7188 17.6189 21.7799 17.4715 21.7799 17.3179C21.7799 17.1642 21.7188 17.0168 21.6102 16.9082C21.5015 16.7995 21.3541 16.7385 21.2005 16.7385ZM21.2005 22.9497H14.5315C14.3779 22.9497 14.2305 23.0107 14.1218 23.1194C14.0132 23.228 13.9521 23.3754 13.9521 23.5291C13.9521 23.6827 14.0132 23.8301 14.1218 23.9388C14.2305 24.0474 14.3779 24.1085 14.5315 24.1085H21.2005C21.3541 24.1085 21.5015 24.0474 21.6102 23.9388C21.7188 23.8301 21.7799 23.6827 21.7799 23.5291C21.7799 23.3754 21.7188 23.228 21.6102 23.1194C21.5015 23.0107 21.3541 22.9497 21.2005 22.9497Z" fill="#686363"/>
<path d="M17.1907 1.44824H13.5173C13.3636 1.44824 13.2162 1.50929 13.1076 1.61795C12.9989 1.7266 12.9379 1.87398 12.9379 2.02764V3.97444H11.8775C11.48 3.97487 11.0955 4.11676 10.793 4.37472C10.4904 4.63268 10.2895 4.98987 10.2263 5.38239H6.53546C6.38179 5.38239 6.23442 5.44343 6.12576 5.55209C6.0171 5.66075 5.95605 5.80812 5.95605 5.96179V28.6802C5.95605 28.8338 6.0171 28.9812 6.12576 29.0899C6.23442 29.1985 6.38179 29.2596 6.53546 29.2596H24.1725C24.3261 29.2596 24.4735 29.1985 24.5822 29.0899C24.6908 28.9812 24.7519 28.8338 24.7519 28.6802V5.96179C24.7519 5.80812 24.6908 5.66075 24.5822 5.55209C24.4735 5.44343 24.3261 5.38239 24.1725 5.38239H20.4875C20.4218 4.98989 20.2195 4.63326 19.9162 4.37559C19.613 4.11792 19.2283 3.97582 18.8304 3.97444H17.7701V2.02764C17.7701 1.87398 17.709 1.7266 17.6004 1.61795C17.4917 1.50929 17.3443 1.44824 17.1907 1.44824ZM23.5641 28.1008H7.11486V6.54119H10.1973V7.12059C10.1973 7.27426 10.2583 7.42163 10.367 7.53029C10.4756 7.63895 10.623 7.7 10.7767 7.7H19.9312C20.0849 7.7 20.2323 7.63895 20.3409 7.53029C20.4496 7.42163 20.5106 7.27426 20.5106 7.12059V6.54119H23.5931L23.5641 28.1008ZM18.8304 5.13324C18.8994 5.13324 18.9676 5.14692 19.0313 5.17348C19.0949 5.20005 19.1527 5.23898 19.2012 5.28802C19.2497 5.33706 19.288 5.39523 19.3138 5.45916C19.3397 5.5231 19.3526 5.59153 19.3518 5.6605V6.56437H11.3561V5.6605C11.3553 5.59153 11.3682 5.5231 11.3941 5.45916C11.42 5.39523 11.4583 5.33706 11.5068 5.28802C11.5553 5.23898 11.613 5.20005 11.6766 5.17348C11.7403 5.14692 11.8086 5.13324 11.8775 5.13324H13.5173C13.6709 5.13324 13.8183 5.0722 13.927 4.96354C14.0356 4.85488 14.0967 4.70751 14.0967 4.55384V2.60705H16.6113V4.55384C16.6113 4.70751 16.6723 4.85488 16.781 4.96354C16.8896 5.0722 17.037 5.13324 17.1907 5.13324H18.8304Z" fill="#686363"/>
<path d="M23.7922 8.2711C25.4991 7.89666 26.0042 8.27883 26.1915 9.87476L17.2267 23.2876L13.815 25.0608L14.8274 21.6839L23.7922 8.2711Z" fill="#686363"/>
</svg>
