<svg width="72" height="72" viewBox="0 0 72 72" fill="none" xmlns="http://www.w3.org/2000/svg">
<path d="M28.1684 21.0918H22.3044C21.983 21.0918 21.6749 21.2194 21.4476 21.4467C21.2204 21.6739 21.0928 21.9821 21.0928 22.3034V28.1554C21.0928 28.4768 21.2204 28.7849 21.4476 29.0121C21.6749 29.2394 21.983 29.367 22.3044 29.367H28.1684C28.4898 29.367 28.7979 29.2394 29.0252 29.0121C29.2524 28.7849 29.38 28.4768 29.38 28.1554V22.3034C29.38 21.9821 29.2524 21.6739 29.0252 21.4467C28.7979 21.2194 28.4898 21.0918 28.1684 21.0918ZM26.9569 26.9438H23.5159V23.515H26.9569V26.9438ZM28.1684 34.068H22.3044C21.983 34.068 21.6749 34.1957 21.4476 34.4229C21.2204 34.6501 21.0928 34.9583 21.0928 35.2796V41.1316C21.0928 41.453 21.2204 41.7612 21.4476 41.9884C21.6749 42.2156 21.983 42.3432 22.3044 42.3432H28.1684C28.4898 42.3432 28.7979 42.2156 29.0252 41.9884C29.2524 41.7612 29.38 41.453 29.38 41.1316V35.2796C29.38 34.9583 29.2524 34.6501 29.0252 34.4229C28.7979 34.1957 28.4898 34.068 28.1684 34.068ZM26.9569 39.92H23.5159V36.4912H26.9569V39.92ZM28.1684 47.0443H22.3044C21.983 47.0443 21.6749 47.1719 21.4476 47.3991C21.2204 47.6263 21.0928 47.9345 21.0928 48.2558V54.0836C21.0928 54.405 21.2204 54.7132 21.4476 54.9404C21.6749 55.1676 21.983 55.2952 22.3044 55.2952H28.1684C28.4898 55.2952 28.7979 55.1676 29.0252 54.9404C29.2524 54.7132 29.38 54.405 29.38 54.0836V48.2558C29.38 47.9345 29.2524 47.6263 29.0252 47.3991C28.7979 47.1719 28.4898 47.0443 28.1684 47.0443ZM26.9569 52.8963H23.5159V49.4674H26.9569V52.8963ZM32.8088 24.0118C32.4875 24.0118 32.1793 24.1394 31.9521 24.3666C31.7249 24.5938 31.5972 24.902 31.5972 25.2234C31.5972 25.5447 31.7249 25.8529 31.9521 26.0801C32.1793 26.3073 32.4875 26.4349 32.8088 26.4349H46.7542C47.0755 26.4349 47.3837 26.3073 47.6109 26.0801C47.8381 25.8529 47.9658 25.5447 47.9658 25.2234C47.9658 24.902 47.8381 24.5938 47.6109 24.3666C47.3837 24.1394 47.0755 24.0118 46.7542 24.0118H32.8088ZM46.7542 36.988H32.8088C32.4875 36.988 32.1793 37.1156 31.9521 37.3428C31.7249 37.5701 31.5972 37.8782 31.5972 38.1996C31.5972 38.5209 31.7249 38.8291 31.9521 39.0563C32.1793 39.2835 32.4875 39.4112 32.8088 39.4112H46.7542C47.0755 39.4112 47.3837 39.2835 47.6109 39.0563C47.8381 38.8291 47.9658 38.5209 47.9658 38.1996C47.9658 37.8782 47.8381 37.5701 47.6109 37.3428C47.3837 37.1156 47.0755 36.988 46.7542 36.988ZM46.7542 49.9763H32.8088C32.4875 49.9763 32.1793 50.104 31.9521 50.3312C31.7249 50.5584 31.5972 50.8666 31.5972 51.1879C31.5972 51.5093 31.7249 51.8174 31.9521 52.0447C32.1793 52.2719 32.4875 52.3995 32.8088 52.3995H46.7542C47.0755 52.3995 47.3837 52.2719 47.6109 52.0447C47.8381 51.8174 47.9658 51.5093 47.9658 51.1879C47.9658 50.8666 47.8381 50.5584 47.6109 50.3312C47.3837 50.104 47.0755 49.9763 46.7542 49.9763Z" fill="#686363"/>
<path d="M37.5542 7.0293H29.8727C29.5514 7.0293 29.2432 7.15695 29.016 7.38417C28.7888 7.61138 28.6611 7.91956 28.6611 8.2409V12.3119H26.4439C25.6125 12.3128 24.8086 12.6095 24.176 13.1489C23.5433 13.6883 23.1232 14.4353 22.9909 15.2561H15.2731C14.9518 15.2561 14.6436 15.3837 14.4164 15.6109C14.1892 15.8381 14.0615 16.1463 14.0615 16.4677V63.9744C14.0615 64.2958 14.1892 64.604 14.4164 64.8312C14.6436 65.0584 14.9518 65.186 15.2731 65.186H52.1538C52.4751 65.186 52.7833 65.0584 53.0105 64.8312C53.2377 64.604 53.3654 64.2958 53.3654 63.9744V16.4677C53.3654 16.1463 53.2377 15.8381 53.0105 15.6109C52.7833 15.3837 52.4751 15.2561 52.1538 15.2561H44.4481C44.3108 14.4353 43.8877 13.6895 43.2536 13.1507C42.6194 12.6119 41.8151 12.3148 40.983 12.3119H38.7658V8.2409C38.7658 7.91956 38.6381 7.61138 38.4109 7.38417C38.1837 7.15695 37.8755 7.0293 37.5542 7.0293ZM50.8816 62.7628H16.4847V17.6793H22.9303V18.8908C22.9303 19.2122 23.058 19.5204 23.2852 19.7476C23.5124 19.9748 23.8206 20.1024 24.1419 20.1024H43.285C43.6063 20.1024 43.9145 19.9748 44.1417 19.7476C44.3689 19.5204 44.4966 19.2122 44.4966 18.8908V17.6793H50.9422L50.8816 62.7628ZM40.983 14.7351C41.1272 14.7351 41.27 14.7637 41.4031 14.8192C41.5362 14.8748 41.6569 14.9562 41.7583 15.0587C41.8597 15.1613 41.9398 15.2829 41.9939 15.4166C42.048 15.5503 42.075 15.6934 42.0734 15.8376V17.7277H25.3535V15.8376C25.3519 15.6934 25.3789 15.5503 25.433 15.4166C25.4871 15.2829 25.5672 15.1613 25.6686 15.0587C25.77 14.9562 25.8907 14.8748 26.0238 14.8192C26.1569 14.7637 26.2997 14.7351 26.4439 14.7351H29.8727C30.1941 14.7351 30.5022 14.6074 30.7294 14.3802C30.9567 14.153 31.0843 13.8448 31.0843 13.5235V9.45249H36.3426V13.5235C36.3426 13.8448 36.4702 14.153 36.6975 14.3802C36.9247 14.6074 37.2328 14.7351 37.5542 14.7351H40.983Z" fill="#686363"/>
<path d="M54.3905 13.514C57.7593 12.2129 58.6131 12.888 58.5072 16.2655L37.4878 47.7137L30.4565 52.5181L33.3712 44.9622L54.3905 13.514Z" fill="#686363"/>
</svg>
