<svg width="46" height="46" viewBox="0 0 46 46" fill="none" xmlns="http://www.w3.org/2000/svg">
<path d="M22.9999 22.5328C21.6966 22.533 20.4226 22.1467 19.3389 21.4227C18.2552 20.6988 17.4105 19.6698 16.9117 18.4658C16.4128 17.2618 16.2822 15.9369 16.5363 14.6587C16.7905 13.3805 17.418 12.2063 18.3394 11.2847C19.2609 10.3631 20.435 9.73549 21.7132 9.48117C22.9914 9.22685 24.3163 9.35729 25.5203 9.85598C26.7244 10.3547 27.7535 11.1992 28.4776 12.2828C29.2017 13.3664 29.5881 14.6404 29.5881 15.9436C29.5865 17.6905 28.8918 19.3654 27.6567 20.6007C26.4215 21.836 24.7468 22.5309 22.9999 22.5328ZM22.9999 11.2547C22.0722 11.2545 21.1654 11.5294 20.394 12.0447C19.6226 12.56 19.0214 13.2924 18.6663 14.1494C18.3112 15.0064 18.2183 15.9494 18.3992 16.8593C18.5801 17.7691 19.0268 18.6048 19.6828 19.2608C20.3387 19.9167 21.1744 20.3634 22.0843 20.5443C22.9941 20.7252 23.9371 20.6323 24.7941 20.2772C25.6511 19.9221 26.3836 19.3209 26.8988 18.5495C27.4141 17.7781 27.689 16.8713 27.6888 15.9436C27.6874 14.7005 27.1929 13.5087 26.3139 12.6296C25.4349 11.7506 24.243 11.2561 22.9999 11.2547ZM33.5179 36.6445H12.4819L11.5322 35.6949C11.5322 34.1889 11.8288 32.6977 12.4052 31.3064C12.9815 29.9151 13.8262 28.6509 14.891 27.586C15.9559 26.5212 17.2201 25.6765 18.6114 25.1002C20.0027 24.5238 21.4939 24.2272 22.9999 24.2272C24.5058 24.2272 25.997 24.5238 27.3884 25.1002C28.7797 25.6765 30.0439 26.5212 31.1087 27.586C32.1736 28.6509 33.0183 29.9151 33.5946 31.3064C34.1709 32.6977 34.4675 34.1889 34.4675 35.6949L33.5179 36.6445ZM13.4764 34.7452H32.5233C32.2911 32.3806 31.1875 30.187 29.4272 28.5911C27.6669 26.9952 25.3759 26.1113 22.9999 26.1113C20.6239 26.1113 18.3329 26.9952 16.5726 28.5911C14.8123 30.187 13.7087 32.3806 13.4764 34.7452Z" fill="#686363"/>
</svg>
