<svg width="173" height="173" viewBox="0 0 173 173" fill="none" xmlns="http://www.w3.org/2000/svg">
<path d="M154.078 45.9531C154.979 46.8542 155.88 48.0126 156.782 49.4286H111.215V3.86161C112.63 4.76265 113.789 5.66369 114.69 6.56473L154.078 45.9531ZM108.125 61.7857H160.643V163.732C160.643 166.307 159.742 168.495 157.94 170.297C156.138 172.099 153.95 173 151.375 173H21.6253C19.0509 173 16.8626 172.099 15.0605 170.297C13.2585 168.495 12.3574 166.307 12.3574 163.732V9.26786C12.3574 6.69345 13.2585 4.50521 15.0605 2.70312C16.8626 0.901042 19.0509 0 21.6253 0H98.8574V52.5179C98.8574 55.0923 99.7585 57.2805 101.561 59.0826C103.363 60.8847 105.551 61.7857 108.125 61.7857ZM123.572 132.839V126.661C123.572 125.76 123.282 125.02 122.703 124.44C122.124 123.861 121.383 123.571 120.482 123.571H52.5181C51.6171 123.571 50.877 123.861 50.2977 124.44C49.7185 125.02 49.4289 125.76 49.4289 126.661V132.839C49.4289 133.74 49.7185 134.48 50.2977 135.06C50.877 135.639 51.6171 135.929 52.5181 135.929H120.482C121.383 135.929 122.124 135.639 122.703 135.06C123.282 134.48 123.572 133.74 123.572 132.839ZM123.572 108.125V101.946C123.572 101.045 123.282 100.305 122.703 99.726C122.124 99.1468 121.383 98.8571 120.482 98.8571H52.5181C51.6171 98.8571 50.877 99.1468 50.2977 99.726C49.7185 100.305 49.4289 101.045 49.4289 101.946V108.125C49.4289 109.026 49.7185 109.766 50.2977 110.345C50.877 110.925 51.6171 111.214 52.5181 111.214H120.482C121.383 111.214 122.124 110.925 122.703 110.345C123.282 109.766 123.572 109.026 123.572 108.125ZM123.572 83.4107V77.2321C123.572 76.3311 123.282 75.591 122.703 75.0117C122.124 74.4325 121.383 74.1429 120.482 74.1429H52.5181C51.6171 74.1429 50.877 74.4325 50.2977 75.0117C49.7185 75.591 49.4289 76.3311 49.4289 77.2321V83.4107C49.4289 84.3118 49.7185 85.0519 50.2977 85.6311C50.877 86.2104 51.6171 86.5 52.5181 86.5H120.482C121.383 86.5 122.124 86.2104 122.703 85.6311C123.282 85.0519 123.572 84.3118 123.572 83.4107Z" fill="#686363"/>
</svg>
