<svg width="30" height="31" viewBox="0 0 30 31" fill="none" xmlns="http://www.w3.org/2000/svg">
<path d="M5.16731 29.3035H21.7417C21.8907 29.3035 22.0337 29.2443 22.139 29.139C22.2444 29.0336 22.3036 28.8907 22.3036 28.7417V25.4268H25.0566C25.2056 25.4268 25.3485 25.3676 25.4539 25.2622C25.5593 25.1569 25.6185 25.014 25.6185 24.8649V6.84658C25.6188 6.76264 25.6002 6.6797 25.5643 6.60387C25.5283 6.52803 25.4758 6.46122 25.4106 6.40834L20.5338 2.47542L20.4495 2.41362L20.3821 2.37429C20.3173 2.34995 20.249 2.33666 20.1798 2.33496H8.4822C8.33319 2.33496 8.19028 2.39416 8.08491 2.49952C7.97955 2.60489 7.92035 2.7478 7.92035 2.89681V6.21169H5.16731C5.0183 6.21169 4.8754 6.27088 4.77003 6.37625C4.66466 6.48162 4.60547 6.62452 4.60547 6.77354V28.7417C4.60547 28.8907 4.66466 29.0336 4.77003 29.139C4.8754 29.2443 5.0183 29.3035 5.16731 29.3035ZM17.4268 7.95341L20.4888 10.4311H17.4268V7.95341ZM20.7417 4.07668L23.5509 6.32406H20.7417V4.07668ZM9.04404 3.45865H19.618V6.90838C19.618 7.05739 19.6772 7.2003 19.7825 7.30566C19.8879 7.41103 20.0308 7.47022 20.1798 7.47022H24.4948V24.3256H22.3036V10.7233C22.3039 10.6394 22.2853 10.5564 22.2494 10.4806C22.2134 10.4048 22.1609 10.3379 22.0957 10.2851L17.2189 6.35215C17.194 6.33183 17.1654 6.31657 17.1346 6.3072L17.0784 6.25102C17.0117 6.22668 16.9415 6.21339 16.8705 6.21169H9.04404V3.45865ZM5.72916 7.33538H16.3031V10.993C16.3031 11.142 16.3623 11.2849 16.4676 11.3903C16.573 11.4956 16.7159 11.5548 16.8649 11.5548H21.1799V28.1798H5.72916V7.33538Z" fill="#686363"/>
<path d="M18.4264 13.4209H8.48177C8.33276 13.4209 8.18985 13.4801 8.08448 13.5855C7.97912 13.6908 7.91992 13.8337 7.91992 13.9827C7.91992 14.1318 7.97912 14.2747 8.08448 14.38C8.18985 14.4854 8.33276 14.5446 8.48177 14.5446H18.4264C18.5754 14.5446 18.7183 14.4854 18.8237 14.38C18.9291 14.2747 18.9883 14.1318 18.9883 13.9827C18.9883 13.8337 18.9291 13.6908 18.8237 13.5855C18.7183 13.4801 18.5754 13.4209 18.4264 13.4209ZM18.4264 16.1402H8.48177C8.33276 16.1402 8.18985 16.1994 8.08448 16.3048C7.97912 16.4102 7.91992 16.5531 7.91992 16.7021C7.91992 16.8511 7.97912 16.994 8.08448 17.0994C8.18985 17.2047 8.33276 17.2639 8.48177 17.2639H18.4264C18.5754 17.2639 18.7183 17.2047 18.8237 17.0994C18.9291 16.994 18.9883 16.8511 18.9883 16.7021C18.9883 16.5531 18.9291 16.4102 18.8237 16.3048C18.7183 16.1994 18.5754 16.1402 18.4264 16.1402ZM18.4264 18.8596H8.48177C8.33276 18.8596 8.18985 18.9188 8.08448 19.0241C7.97912 19.1295 7.91992 19.2724 7.91992 19.4214C7.91992 19.5704 7.97912 19.7133 8.08448 19.8187C8.18985 19.9241 8.33276 19.9832 8.48177 19.9832H18.4264C18.5754 19.9832 18.7183 19.9241 18.8237 19.8187C18.9291 19.7133 18.9883 19.5704 18.9883 19.4214C18.9883 19.2724 18.9291 19.1295 18.8237 19.0241C18.7183 18.9188 18.5754 18.8596 18.4264 18.8596ZM18.4264 21.5845H8.48177C8.33276 21.5845 8.18985 21.6437 8.08448 21.7491C7.97912 21.8544 7.91992 21.9973 7.91992 22.1463C7.91992 22.2954 7.97912 22.4383 8.08448 22.5436C8.18985 22.649 8.33276 22.7082 8.48177 22.7082H18.4264C18.5754 22.7082 18.7183 22.649 18.8237 22.5436C18.9291 22.4383 18.9883 22.2954 18.9883 22.1463C18.9883 21.9973 18.9291 21.8544 18.8237 21.7491C18.7183 21.6437 18.5754 21.5845 18.4264 21.5845ZM18.4264 24.3038H8.48177C8.33276 24.3038 8.18985 24.363 8.08448 24.4684C7.97912 24.5738 7.91992 24.7167 7.91992 24.8657C7.91992 25.0147 7.97912 25.1576 8.08448 25.263C8.18985 25.3683 8.33276 25.4275 8.48177 25.4275H18.4264C18.5754 25.4275 18.7183 25.3683 18.8237 25.263C18.9291 25.1576 18.9883 25.0147 18.9883 24.8657C18.9883 24.7167 18.9291 24.5738 18.8237 24.4684C18.7183 24.363 18.5754 24.3038 18.4264 24.3038Z" fill="#686363"/>
</svg>
